<svg preserveAspectRatio="none" overflow="visible" style="display: block;" width="24" height="24" viewBox="0 0 24 24" fill="none" xmlns="http://www.w3.org/2000/svg">
<g id="page-with-curl 1" clip-path="url(#clip0_0_10)">
<path id="Vector" d="M14.3629 2.907C11.118 3.83963 7.87275 4.773 4.62787 5.70525C4.80347 5.96178 4.96665 6.22659 5.11688 6.49875C8.32762 5.51063 11.5387 4.5225 14.7499 3.53513C14.6314 3.32063 14.5024 3.11138 14.3629 2.907Z" fill="#F4F4F6"/>
<path id="Vector_2" d="M15.3 4.734L5.81288 8.01525C5.92275 8.30513 6.02287 8.5995 6.11512 8.89762C9.25613 7.74187 12.3983 6.58725 15.5389 5.43225C15.4661 5.19721 15.3865 4.96435 15.3 4.734Z" fill="#F4F4F6"/>
<path id="Vector_3" d="M6.54712 10.5379C6.618 10.8457 6.6825 11.1566 6.74475 11.4686L16.0267 7.47C15.9775 7.22392 15.9255 6.9784 15.8707 6.7335C12.7624 8.00175 9.6555 9.27 6.54712 10.5379Z" fill="#F4F4F6"/>
<path id="Vector_4" d="M22.9605 12.4331C22.1145 11.5061 21.6334 10.4085 21.3034 9.23887C20.2807 9.8175 19.3129 10.365 18.3983 10.8832C17.397 7.3335 17.6704 3.183 14.2954 0.75L0.75 3.84487C6.477 7.97175 4.929 18.6604 9.01538 22.6744C9.357 23.01 10.6369 23.6449 12.4159 22.9099C15.1729 21.7706 14.1622 20.4784 22.6102 14.3197C23.3554 13.776 23.4188 12.9435 22.9605 12.4331ZM9.26288 16.0537C9.72563 17.6944 12.8445 18.5831 12.306 21.0259C11.979 22.5112 10.1422 22.8116 9.50812 22.1749C7.83937 20.5001 7.149 17.4866 6.4365 14.277C5.61187 10.563 4.76287 6.73725 2.26312 4.218L14.1319 1.50675C16.1888 3.14587 16.6309 5.58825 17.0978 8.16862C17.2819 9.18675 17.478 10.23 17.7742 11.2369L9.26288 16.0537Z" fill="#F4F4F6"/>
</g>
<defs>
<clipPath id="clip0_0_10">
<rect width="24" height="24" fill="white"/>
</clipPath>
</defs>
</svg>
