<svg preserveAspectRatio="none" overflow="visible" style="display: block;" width="18" height="18" viewBox="0 0 18 18" fill="none" xmlns="http://www.w3.org/2000/svg">
<g id="banned-sign 1" clip-path="url(#clip0_0_36)">
<path id="Vector" d="M8.99998 0C4.02955 0 0 4.02951 0 9.00002C0 13.9705 4.02955 18 8.99998 18C13.9705 18 18 13.9705 18 9.00002C18 4.02951 13.9705 0 8.99998 0ZM2.40002 9.00002C2.40002 7.54746 2.87752 6.20746 3.67561 5.11616L12.8837 14.3244C11.7925 15.1228 10.4525 15.6 9.00002 15.6C5.36074 15.6 2.40002 12.6393 2.40002 9.00002ZM14.4527 12.7122L5.28749 3.54727C6.34633 2.8242 7.62427 2.39998 8.99998 2.39998C12.6393 2.39998 15.6 5.36078 15.6 9.00002C15.6 10.3758 15.1758 11.6537 14.4527 12.7122Z" fill="#F4F4F6"/>
</g>
<defs>
<clipPath id="clip0_0_36">
<rect width="18" height="18" fill="white"/>
</clipPath>
</defs>
</svg>
